<?xml version="1.0" encoding="UTF-8"?>
<svg version="1.1" xmlns="http://www.w3.org/2000/svg" width="2000" height="2000">
<path d="M0 0 C2.69889432 0.26475263 5.39863995 0.51931588 8.09857178 0.77325439 C95.65806355 9.11963039 182.31058414 28.71401937 393.02386475 120.79083252 C396.12914748 122.56638078 399.26283415 124.28557838 402.402771 125.99884033 C420.49517652 135.89654582 437.80525504 146.94807567 454.95648193 158.37823486 C455.70580994 158.87712219 456.45513794 159.37600952 457.22717285 159.89001465 C471.46243623 169.38162085 485.51111103 179.14225417 499.26898193 189.31573486 C500.06022461 189.90024414 500.85146729 190.48475342 501.66668701 191.0869751 C508.74832975 196.34003473 515.70906929 201.72987948 522.58148193 207.25323486 C523.22182373 207.76740967 523.86216553 208.28158447 524.52191162 208.81134033 C533.10057747 215.71283347 541.58812394 222.71364302 549.9574585 229.86749268 C551.64862414 231.31052578 553.34522812 232.74698303 555.04241943 234.18292236 C562.54004343 240.54429139 569.8285299 247.09137244 577.01556396 253.80059814 C578.54740444 255.22162259 580.09079274 256.62860944 581.64007568 258.03057861 C587.37555079 263.22481352 592.92934145 268.54635369 598.36297607 274.05621338 C601.01092872 276.72855907 603.69675609 279.27686303 606.58148193 281.69073486 C610.68686561 285.18540031 614.2507409 289.14864531 617.86737061 293.13262939 C621.43947814 297.05549375 625.11657679 300.84069451 628.89398193 304.56573486 C632.64955861 308.27839067 636.26074854 312.05026293 639.68304443 316.07354736 C641.70117739 318.39066298 643.78451978 320.63489868 645.88201904 322.87994385 C650.85857138 328.20838142 655.61301722 333.63056816 660.17913818 339.31964111 C663.03109401 342.80227335 665.98981195 346.18093201 668.95648193 349.56573486 C674.63513622 356.06929535 680.03431432 362.74737838 685.29925537 369.58868408 C686.52552439 371.18059234 687.76033714 372.76590829 688.99554443 374.35089111 C693.94811902 380.73116228 698.78594892 387.19165388 703.58148193 393.69073486 C704.12651367 394.42896484 704.67154541 395.16719482 705.23309326 395.92779541 C714.25305098 408.19615772 722.96336056 420.63623775 731.39398193 433.31573486 C731.87326141 434.03556549 732.35254089 434.75539612 732.84634399 435.49703979 C740.67592823 447.26637909 748.30610793 459.13161206 755.58148193 471.25323486 C756.10468018 472.11851807 756.62787842 472.98380127 757.16693115 473.87530518 C765.75549005 488.09777341 773.78846038 502.58172863 781.58148193 517.25323486 C782.06939209 518.16589111 782.55730225 519.07854736 783.05999756 520.01885986 C804.77643672 560.68943063 823.37535572 602.6830413 838.82293701 646.12408447 C839.57990132 648.24879824 840.3427607 650.37131665 841.10687256 652.49346924 C857.91483905 699.28498881 870.22877307 747.45395145 879.58148193 796.25323486 C879.72198975 796.98546265 879.86249756 797.71769043 880.00726318 798.47210693 C889.80673671 849.82309812 895.65221082 902.55933282 895.78460693 954.86651611 C895.79163184 956.59740218 895.79871863 958.328288 895.80586243 960.05917358 C895.82525819 965.5613645 895.830297 971.06351321 895.83148193 976.56573486 C895.83192379 977.50426929 895.83236565 978.44280373 895.83282089 979.40977859 C895.83977363 1007.58251697 895.59072989 1035.60885879 892.8347168 1063.67175293 C892.56996417 1066.37064725 892.31540092 1069.07039288 892.0614624 1071.77032471 C888.26387941 1111.61088367 882.07434258 1151.14483277 873.58148193 1190.25323486 C873.3606897 1191.2749881 873.3606897 1191.2749881 873.13543701 1192.31738281 C865.19428284 1228.95892757 854.54124802 1264.86848021 842.26452637 1300.27832031 C841.61399371 1302.15923224 840.96988189 1304.04236124 840.32611084 1305.92559814 C830.49673066 1334.64186097 819.10144847 1362.86188761 806.01556396 1390.24981689 C804.57595909 1393.26480143 803.15378294 1396.2875483 801.73382568 1399.31182861 C779.17205493 1447.1162034 752.8352972 1492.88848429 722.58148193 1536.25323486 C722.08438721 1536.96785889 721.58729248 1537.68248291 721.07513428 1538.41876221 C709.72262068 1554.71625867 698.02560206 1570.76968863 685.58148193 1586.25323486 C685.06730713 1586.89357666 684.55313232 1587.53391846 684.02337646 1588.19366455 C677.12188333 1596.7723304 670.12107378 1605.25987687 662.96722412 1613.62921143 C661.52419102 1615.32037707 660.08773376 1617.01698105 658.65179443 1618.71417236 C652.2904254 1626.21179636 645.74334436 1633.50028283 639.03411865 1640.68731689 C637.6130942 1642.21915737 636.20610736 1643.76254567 634.80413818 1645.31182861 C629.60990328 1651.04730372 624.28836311 1656.60109438 618.77850342 1662.034729 C616.10615772 1664.68268165 613.55785377 1667.36850902 611.14398193 1670.25323486 C607.64931649 1674.35861854 603.68607148 1677.92249383 599.7020874 1681.53912354 C595.77922319 1685.11123093 591.99401821 1688.78832549 588.26898193 1692.56573486 C584.53476689 1696.3431825 580.7409399 1699.97818368 576.69476318 1703.42120361 C574.52471866 1705.30244369 572.41621843 1707.24310699 570.3114624 1709.19683838 C565.0994451 1714.03350464 559.7609678 1718.62184396 554.21820068 1723.08135986 C551.65728165 1725.19079836 549.21024739 1727.38211135 546.76898193 1729.62823486 C541.80430635 1734.14655949 536.58060796 1738.25885422 531.28070068 1742.37042236 C528.18112014 1744.77565096 525.11972591 1747.22458083 522.06732178 1749.68927002 C514.38248314 1755.88997293 506.56324972 1761.8873283 498.61761475 1767.74981689 C497.2943614 1768.72686654 495.97326867 1769.7068516 494.65472412 1770.69024658 C457.1443459 1798.63747662 416.89853132 1823.38695937 375.58148193 1845.25323486 C374.67607666 1845.73679443 373.77067139 1846.220354 372.83782959 1846.71856689 C311.00996903 1879.73582721 245.92935982 1904.98869471 178.58148193 1924.25323486 C176.86590088 1924.74702637 176.86590088 1924.74702637 175.11566162 1925.25079346 C111.0112116 1943.52355725 44.19962152 1954.02728782 -22.28536987 1958.11962891 C-23.68179998 1958.20709183 -25.07796498 1958.2989233 -26.4737854 1958.39562988 C-45.52300114 1959.70740306 -64.64698197 1959.49900266 -83.73101807 1959.50323486 C-84.64340492 1959.50367672 -85.55579178 1959.50411858 -86.49582672 1959.50457382 C-115.570798 1959.51194967 -144.45775131 1959.08002097 -173.41851807 1956.25323486 C-174.32557495 1956.16602173 -175.23263184 1956.07880859 -176.16717529 1955.98895264 C-257.5527937 1948.1069882 -337.58104704 1930.82435449 -429.41851807 1898.25323486 C-430.4705542 1897.85491455 -431.52259033 1897.45659424 -432.60650635 1897.04620361 C-466.38038198 1884.19512209 -499.12761828 1869.45322862 -531.41851807 1853.25323486 C-532.05807434 1852.93292297 -532.69763062 1852.61261108 -533.35656738 1852.28259277 C-548.4137219 1844.73308529 -563.04608779 1836.58219899 -577.52056885 1827.97198486 C-580.35279485 1826.29221477 -583.19429689 1824.62946921 -586.03961182 1822.97198486 C-605.68331381 1811.50506059 -624.76516923 1799.26691446 -643.41851807 1786.25323486 C-644.13314209 1785.75614014 -644.84776611 1785.25904541 -645.58404541 1784.74688721 C-661.88154187 1773.3943736 -677.93497183 1761.69735499 -693.41851807 1749.25323486 C-694.05885986 1748.73906006 -694.69920166 1748.22488525 -695.35894775 1747.69512939 C-703.9376136 1740.79363626 -712.42516008 1733.79282671 -720.79449463 1726.63897705 C-722.48566027 1725.19594395 -724.18226426 1723.75948669 -725.87945557 1722.32354736 C-733.37707956 1715.96217833 -740.66556603 1709.41509729 -747.8526001 1702.70587158 C-749.38444057 1701.28484713 -750.92782888 1699.87786029 -752.47711182 1698.47589111 C-758.21258693 1693.28165621 -763.76637758 1687.96011604 -769.20001221 1682.45025635 C-771.84796485 1679.77791065 -774.53379222 1677.22960669 -777.41851807 1674.81573486 C-781.52390175 1671.32106942 -785.08777703 1667.35782441 -788.70440674 1663.37384033 C-792.27651427 1659.45097597 -795.95361293 1655.66577522 -799.73101807 1651.94073486 C-803.48659475 1648.22807906 -807.09778468 1644.4562068 -810.52008057 1640.43292236 C-812.53821352 1638.11580675 -814.62155592 1635.87157105 -816.71905518 1633.62652588 C-821.69560752 1628.2980883 -826.45005335 1622.87590157 -831.01617432 1617.18682861 C-833.86813014 1613.70419638 -836.82684808 1610.32553772 -839.79351807 1606.94073486 C-845.47217235 1600.43717438 -850.87135046 1593.75909135 -856.1362915 1586.91778564 C-857.36256053 1585.32587738 -858.59737327 1583.74056144 -859.83258057 1582.15557861 C-864.78515515 1575.77530745 -869.62298505 1569.31481585 -874.41851807 1562.81573486 C-874.9635498 1562.07750488 -875.50858154 1561.3392749 -876.07012939 1560.57867432 C-885.09008711 1548.31031201 -893.80039669 1535.87023198 -902.23101807 1523.19073486 C-902.71029755 1522.47090424 -903.18957703 1521.75107361 -903.68338013 1521.00942993 C-911.51296436 1509.24009063 -919.14314406 1497.37485767 -926.41851807 1485.25323486 C-927.20331543 1483.95531006 -927.20331543 1483.95531006 -928.00396729 1482.63116455 C-936.59252619 1468.40869632 -944.62549652 1453.9247411 -952.41851807 1439.25323486 C-952.90642822 1438.34057861 -953.39433838 1437.42792236 -953.89703369 1436.48760986 C-968.88948096 1408.40973838 -982.45791437 1379.74763237 -994.41851807 1350.25323486 C-994.70513306 1349.54765442 -994.99174805 1348.84207397 -995.28704834 1348.1151123 C-1010.76941279 1309.92896164 -1023.70778805 1271.03859716 -1034.41851807 1231.25323486 C-1034.71308899 1230.16069397 -1034.71308899 1230.16069397 -1035.01361084 1229.04608154 C-1041.11821683 1206.32403746 -1045.99107543 1183.35413866 -1050.41851807 1160.25323486 C-1050.55902588 1159.52100708 -1050.69953369 1158.7887793 -1050.84429932 1158.03436279 C-1060.67693558 1106.50959294 -1066.56323111 1053.60507871 -1066.58648682 1001.12042236 C-1066.58972068 999.34715756 -1066.59308611 997.57389299 -1066.59657288 995.80062866 C-1066.60249883 992.10822943 -1066.60441987 988.41585335 -1066.6038208 984.72344971 C-1066.60374006 981.01832136 -1066.61061088 977.31331804 -1066.62432861 973.60821533 C-1066.71121594 949.7441376 -1066.21825383 926.05343001 -1064.41851807 902.25323486 C-1064.3084996 900.76998718 -1064.3084996 900.76998718 -1064.19625854 899.2567749 C-1063.77732081 893.72727245 -1063.2839769 888.20835215 -1062.73101807 882.69073486 C-1062.60988144 881.46199646 -1062.60988144 881.46199646 -1062.48629761 880.20843506 C-1053.68120386 791.90541748 -1032.91436757 705.45985493 -985.41851807 585.25323486 C-984.66789406 583.54126875 -983.91785483 581.82904606 -983.16851807 580.11651611 C-965.07535287 539.05099043 -944.05022874 499.38653718 -920.41851807 461.25323486 C-919.65523193 460.01645996 -919.65523193 460.01645996 -918.87652588 458.75469971 C-899.92758375 428.10787735 -878.99442011 398.34320986 -856.41851807 370.25323486 C-855.90434326 369.61289307 -855.39016846 368.97255127 -854.8604126 368.31280518 C-847.95891946 359.73413933 -840.95810991 351.24659285 -833.80426025 342.8772583 C-832.36122715 341.18609266 -830.92476989 339.48948867 -829.48883057 337.79229736 C-823.55449188 330.79832439 -817.47165458 323.97609697 -811.21539307 317.26885986 C-808.76040941 314.63448634 -806.36586183 311.95141576 -803.98101807 309.25323486 C-799.89219807 304.68031049 -795.58458668 300.35481207 -791.19805908 296.06964111 C-788.33287045 293.25127658 -785.62368639 290.36873203 -783.00836182 287.31573486 C-779.45836112 283.21000518 -775.60550914 279.54055954 -771.60601807 275.87823486 C-766.96002854 271.57876942 -762.36372732 267.26047029 -757.91851807 262.75323486 C-754.61827936 259.41468493 -751.23558353 256.2712505 -747.66851807 253.22198486 C-745.32977088 251.17558107 -743.05811293 249.06945703 -740.78741455 246.94830322 C-735.46004243 241.97366548 -730.03957209 237.22040522 -724.35211182 232.65557861 C-720.86947958 229.80362279 -717.49082092 226.84490485 -714.10601807 223.87823486 C-707.60245758 218.19958058 -700.92437455 212.80040247 -694.08306885 207.53546143 C-692.49116059 206.3091924 -690.90584464 205.07437966 -689.32086182 203.83917236 C-682.94059065 198.88659778 -676.48009905 194.04876788 -669.98101807 189.25323486 C-669.24278809 188.70820313 -668.50455811 188.16317139 -667.74395752 187.60162354 C-655.47559521 178.58166582 -643.03551518 169.87135624 -630.35601807 161.44073486 C-629.63618744 160.96145538 -628.91635681 160.4821759 -628.17471313 159.9883728 C-616.40537384 152.15878857 -604.54014087 144.52860887 -592.41851807 137.25323486 C-591.55323486 136.73003662 -590.68795166 136.20683838 -589.79644775 135.66778564 C-575.57397952 127.07922674 -561.0900243 119.04625641 -546.41851807 111.25323486 C-545.50586182 110.76532471 -544.59320557 110.27741455 -543.65289307 109.77471924 C-515.57502159 94.78227197 -486.91291557 81.21383856 -457.41851807 69.25323486 C-456.71293762 68.96661987 -456.00735718 68.68000488 -455.28039551 68.38470459 C-375.77377467 36.14918312 -292.38398244 14.38339295 -176.140625 0.51037598 C-173.53290562 0.26404037 -170.92618136 0.00875481 -168.31939697 -0.24725342 C-113.09346823 -5.54859742 -55.20817273 -5.4219086 0 0 Z " fill="#FEFEFE" transform="translate(1085.4185180664063,21.74676513671875)"/>
<path d="M0 0 C23.07859193 -0.21985947 46.13479474 -0.22870736 69.18994141 0.93701172 C70.38012878 0.99582016 70.38012878 0.99582016 71.59436035 1.05581665 C81.71767197 1.57325932 91.72762728 2.54776737 101.78405762 3.80114746 C105.47772143 4.24808476 109.17754457 4.63554428 112.87744141 5.02685547 C114.38527563 5.18876263 115.89308812 5.35087241 117.40087891 5.51318359 C119.67045189 5.75718956 121.94013739 5.99953218 124.21044922 6.23657227 C135.22394675 7.3898367 146.05717169 9.01979451 156.93994141 11.06201172 C159.04929953 11.44231365 161.15867299 11.82253056 163.26806641 12.20263672 C190.4878935 17.24619733 216.75143711 24.20028291 242.93994141 33.06201172 C244.79140483 33.67689345 246.64295689 34.29150843 248.49462891 34.90576172 C291.69706597 49.42918816 333.12341645 70.76466108 368.93994141 99.06201172 C369.74431641 99.68720703 370.54869141 100.31240234 371.37744141 100.95654297 C384.14517773 111.00295088 396.19051165 121.85182534 407.93994141 133.06201172 C408.74173828 133.81482422 409.54353516 134.56763672 410.36962891 135.34326172 C411.93994141 137.06201172 411.93994141 137.06201172 411.93994141 139.06201172 C415.34966778 137.64190876 416.97610744 136.03669572 419.12744141 133.06201172 C430.66718315 117.74872573 444.59123509 104.47579224 459.93994141 93.06201172 C461.19275038 92.11436575 462.44535137 91.16644476 463.69775391 90.21826172 C481.74288418 76.66238514 501.60524768 65.78553688 521.93994141 56.06201172 C522.73287598 55.68077148 523.52581055 55.29953125 524.34277344 54.90673828 C577.08746605 29.72644841 635.11829893 15.44813478 692.93994141 8.06201172 C693.99169556 7.92696228 693.99169556 7.92696228 695.06469727 7.78918457 C756.63474936 -0.04273892 826.34061564 -6.25238937 887.93994141 4.06201172 C889.67744308 4.21864219 891.41740686 4.34989738 893.15869141 4.45654297 C910.20597271 5.58578437 927.03800372 7.58803724 943.93994141 10.06201172 C945.20016113 10.24634766 946.46038086 10.43068359 947.75878906 10.62060547 C957.16730374 12.01356999 966.55754593 13.50420072 975.93994141 15.06201172 C976.68779907 15.18598328 977.43565674 15.30995483 978.20617676 15.43768311 C1003.03297243 19.56937783 1027.53679596 24.67504675 1051.99780273 30.59326172 C1054.65916323 31.2356014 1057.32318991 31.86664449 1059.98681641 32.49951172 C1122.96018918 47.65281995 1184.33271603 70.59884701 1242.93994141 97.93701172 C1243.62557159 98.25611511 1244.31120178 98.57521851 1245.01760864 98.9039917 C1252.46670003 102.37704038 1259.83886027 105.90768681 1266.93994141 110.06201172 C1264.7201867 117.13017801 1261.93436173 123.79148691 1258.93994141 130.56201172 C1235.87368531 183.65354523 1216.56995744 238.7483763 1198.40478516 293.69091797 C1197.98463638 294.96048843 1197.98463638 294.96048843 1197.55599976 296.25570679 C1196.23311934 300.25878816 1194.91886371 304.26440029 1193.61865234 308.27490234 C1193.15681279 309.68443197 1192.69490298 311.09393857 1192.23291016 312.50341797 C1191.63772583 314.33948608 1191.63772583 314.33948608 1191.03051758 316.21264648 C1189.93994141 319.06201172 1189.93994141 319.06201172 1187.93994141 321.06201172 C1186.62896484 320.06234375 1186.62896484 320.06234375 1185.29150391 319.04248047 C1151.30415364 293.43576568 1112.66183962 277.11702827 1072.90618896 262.77380371 C1071.00474515 262.08547102 1069.10631647 261.3888269 1067.20800781 260.69189453 C1059.775564 257.98528795 1052.32306659 255.63137971 1044.68994141 253.56201172 C1043.60277832 253.26286865 1042.51561523 252.96372559 1041.39550781 252.65551758 C1039.22561497 252.0585007 1037.05521999 251.46330527 1034.88427734 250.87011719 C1032.3916753 250.18599507 1029.90294323 249.49077122 1027.41650391 248.78466797 C1022.93268788 247.51244886 1018.43870492 246.28025512 1013.93994141 245.06201172 C1012.89290039 244.77745117 1011.84585937 244.49289062 1010.76708984 244.19970703 C975.66952414 234.72581867 940.15713822 227.59674452 904.16015625 222.52197266 C901.48026183 222.13918865 898.8056448 221.73548318 896.13134766 221.31591797 C852.61040577 214.66642701 808.49987468 215.0092082 764.62744141 216.93701172 C763.73192566 216.97603607 762.83640991 217.01506042 761.91375732 217.05526733 C701.64684378 218.67582814 701.64684378 218.67582814 649.89306641 245.80029297 C646.89483187 249.27224856 644.77195997 252.86996924 642.93994141 257.06201172 C642.29025391 258.51607422 642.29025391 258.51607422 641.62744141 259.99951172 C639.70109837 268.58049433 640.84087224 276.27600805 644.93994141 284.06201172 C659.44278605 305.15989993 690.59328098 312.57217834 714.12744141 317.56201172 C714.83247803 317.71197601 715.53751465 317.86194031 716.26391602 318.01644897 C727.10017795 320.29464347 737.94442785 322.07278124 748.93994141 323.37451172 C750.15576904 323.52146484 751.37159668 323.66841797 752.62426758 323.81982422 C780.12198532 326.83192306 807.69410579 327.35428521 835.3260498 327.52505493 C844.82651731 327.58509083 854.32659565 327.68778726 863.82666016 327.79248047 C864.75822056 327.80265387 865.68978096 327.81282726 866.64957047 327.82330894 C912.7428304 328.33692454 958.68675568 330.95899582 1004.50244141 336.12451172 C1005.1828952 336.2004657 1005.863349 336.27641968 1006.56442261 336.35467529 C1015.31505609 337.3451809 1023.95280329 338.71369916 1032.61206055 340.2878418 C1036.91969898 341.06771846 1041.23769155 341.76988047 1045.56103516 342.45654297 C1071.53668281 346.60801576 1096.72987182 351.93447095 1121.79785156 360.05175781 C1124.82121242 361.02383763 1127.85326513 361.96197435 1130.88916016 362.89404297 C1165.99244023 373.87166854 1200.61324692 390.73953604 1227.24072266 416.50341797 C1229.8652652 419.06388742 1229.8652652 419.06388742 1232.58837891 421.17529297 C1236.19304367 424.06740772 1238.98683955 427.52444178 1241.93994141 431.06201172 C1242.55869141 431.79291016 1243.17744141 432.52380859 1243.81494141 433.27685547 C1259.51475602 452.30021955 1270.40526795 474.00884021 1276.56494141 497.87451172 C1276.77159424 498.66865479 1276.97824707 499.46279785 1277.19116211 500.28100586 C1280.79242172 514.83103196 1281.25697796 528.89107371 1281.20068359 543.80908203 C1281.19002984 547.15920394 1281.20059225 550.50878178 1281.21337891 553.85888672 C1281.22244655 567.04506972 1280.62587945 579.98190725 1278.93994141 593.06201172 C1278.71298584 594.82955811 1278.71298584 594.82955811 1278.48144531 596.6328125 C1271.44415234 647.43844276 1251.56996082 693.83938229 1215.93994141 731.06201172 C1215.46975586 731.55942871 1214.99957031 732.0568457 1214.51513672 732.56933594 C1206.91863575 740.57472101 1198.78277238 747.47342809 1189.93994141 754.06201172 C1189.38612793 754.48192383 1188.83231445 754.90183594 1188.26171875 755.33447266 C1173.62097648 766.40904652 1157.50528834 775.22195324 1140.93994141 783.06201172 C1140.20259766 783.41473145 1139.46525391 783.76745117 1138.70556641 784.13085938 C1124.78549601 790.74931566 1110.50144286 796.03894011 1095.93994141 801.06201172 C1095.02035645 801.38443848 1094.10077148 801.70686523 1093.15332031 802.0390625 C1071.4800357 809.63444979 1049.48109445 814.78102525 1026.93994141 819.06201172 C1025.05699738 819.42591516 1023.1741803 819.79047618 1021.29150391 820.15576172 C1016.9515165 820.99515251 1012.60825155 821.81545947 1008.26269531 822.62548828 C1006.1674282 823.01925931 1004.07508352 823.42563658 1001.98291016 823.83544922 C979.09630596 828.1484263 955.82211601 830.45192783 932.59179688 831.82836914 C929.91966146 832.02464019 929.91966146 832.02464019 927.2290802 832.54385376 C920.65579882 833.57938259 913.97468345 833.75661955 907.33447266 834.10498047 C906.49252665 834.14922842 905.65058064 834.19347637 904.78312111 834.23906517 C883.01582757 835.34762755 861.24703866 835.40175997 839.45629883 835.37768555 C834.92331982 835.37307088 830.39061028 835.37993879 825.85766602 835.39819336 C801.23229337 835.49623143 776.70098184 835.19616038 752.11572266 833.69482422 C750.61441079 833.60367812 750.61441079 833.60367812 749.08276939 833.51069069 C719.13281883 831.64731463 689.22453364 828.42701636 659.62207031 823.49414062 C656.13124749 822.93171969 652.63186261 822.45019917 649.12841797 821.97387695 C635.32391344 820.09252019 621.62872818 817.64471166 607.93994141 815.06201172 C607.21037231 814.92472656 606.48080322 814.78744141 605.72912598 814.64599609 C585.72326909 810.87215187 565.84184508 806.71402077 546.06494141 801.87451172 C544.81180649 801.56835434 544.81180649 801.56835434 543.53335571 801.25601196 C526.14605434 796.98974019 508.93426588 792.17237737 491.81494141 786.93701172 C491.04980225 786.70312744 490.28466309 786.46924316 489.49633789 786.22827148 C455.964264 775.94869328 423.34567079 763.71704653 391.15478516 749.78857422 C390.11435059 749.33901367 389.07391602 748.88945313 388.00195312 748.42626953 C385.94058967 747.50784352 383.89506836 746.55310294 381.86621094 745.56494141 C380.90183105 745.09733398 379.93745117 744.62972656 378.94384766 744.14794922 C378.09765869 743.72304199 377.25146973 743.29813477 376.37963867 742.86035156 C373.45175892 741.90226422 371.85646791 742.15812701 368.93994141 743.06201172 C366.59791727 744.52440569 366.59791727 744.52440569 364.25244141 746.43701172 C357.18257319 751.75370507 349.67411387 756.26415463 342.078125 760.78515625 C340.23881533 761.88353369 338.41052002 763.00031797 336.58447266 764.12060547 C316.02519998 776.40509013 293.41336963 785.0073119 270.93994141 793.06201172 C270.21190308 793.32409424 269.48386475 793.58617676 268.73376465 793.85620117 C247.83746138 801.37096008 226.96867733 808.08359446 205.36083984 813.23730469 C202.23429374 813.99104953 199.12183707 814.78423657 196.01025391 815.59716797 C164.94568819 823.59176416 133.02056009 828.67252025 101.12525177 831.84391975 C99.05167916 832.05086039 96.97856703 832.26198484 94.90545654 832.47349548 C69.03682028 835.07804986 43.32713634 835.49921639 17.34277344 835.38458252 C13.218823 835.37114335 9.09498035 835.37642755 4.97101784 835.38144398 C-25.65521286 835.40961866 -56.08835428 834.53940988 -86.56005859 831.24951172 C-87.75003448 831.12403961 -87.75003448 831.12403961 -88.96405029 830.99603271 C-179.51769013 821.40742351 -276.382721 797.03123045 -346.06005859 735.06201172 C-347.45569193 733.8534474 -348.85150069 732.64508559 -350.24755859 731.43701172 C-351.51990677 730.31372525 -352.79067804 729.18865069 -354.06005859 728.06201172 C-354.82576172 727.38912109 -355.59146484 726.71623047 -356.38037109 726.02294922 C-365.50390109 717.9290339 -374.25481733 709.44670259 -382.06005859 700.06201172 C-382.73609131 699.25666992 -382.73609131 699.25666992 -383.42578125 698.43505859 C-396.43432333 682.89626991 -407.85194431 666.56582823 -418.06005859 649.06201172 C-418.7385083 647.90475586 -418.7385083 647.90475586 -419.43066406 646.72412109 C-433.58390723 622.38677289 -443.0310727 596.72367182 -451.45526123 569.98059082 C-451.99061852 568.28229421 -452.53106419 566.58560344 -453.07226562 564.88916016 C-460.34312004 541.89277892 -464.36818518 517.98774763 -467.06005859 494.06201172 C-467.25438931 492.43168606 -467.44967177 490.80147351 -467.64599609 489.17138672 C-469.33219026 474.83577811 -470.2135549 460.60628053 -470.26318359 446.17138672 C-470.2701646 444.78550182 -470.27720555 443.39961722 -470.28430176 442.01373291 C-470.30356082 437.61315507 -470.30847688 433.21262712 -470.31005859 428.81201172 C-470.31064774 428.06306641 -470.31123688 427.31412109 -470.31184387 426.54248047 C-470.32440784 403.92128152 -470.00783152 381.5255371 -467.06005859 359.06201172 C-466.91020508 357.87591309 -466.76035156 356.68981445 -466.60595703 355.46777344 C-465.5955787 347.63465994 -464.39399908 339.84611526 -463.06005859 332.06201172 C-462.88249023 331.00820313 -462.70492187 329.95439453 -462.52197266 328.86865234 C-455.30286687 286.73789948 -441.98208357 245.90571297 -422.06005859 208.06201172 C-421.67833496 207.32515137 -421.29661133 206.58829102 -420.90332031 205.82910156 C-410.8219859 186.45183434 -398.8277658 168.02925651 -385.06005859 151.06201172 C-384.32787109 150.13904297 -383.59568359 149.21607422 -382.84130859 148.26513672 C-378.0024973 142.23366067 -372.88713747 136.51491776 -367.63037109 130.85107422 C-365.47928431 128.51691621 -363.38080201 126.15454555 -361.31005859 123.74951172 C-356.32642271 118.02010609 -350.94037422 112.85627126 -345.18115234 107.91357422 C-343.77423913 106.68544003 -342.39066113 105.43001796 -341.03271484 104.14794922 C-322.68142126 86.92546983 -300.96645397 73.26079765 -279.06005859 61.06201172 C-278.30241211 60.63919922 -277.54476562 60.21638672 -276.76416016 59.78076172 C-227.64593181 32.5990357 -172.27986103 17.52779517 -117.06005859 9.06201172 C-116.02365234 8.89846191 -114.98724609 8.73491211 -113.91943359 8.56640625 C-79.15685138 3.13475278 -43.88830124 0.37312805 -8.71234131 0.08416748 C-5.80818238 0.05990768 -2.90410674 0.02983846 0 0 Z " fill="#212121" transform="translate(594.06005859375,585.93798828125)"/>
<path d="M0 0 C2.70035668 -0.00218318 5.40030111 -0.02041152 8.10058594 -0.03930664 C24.1106347 -0.09179412 39.73677685 1.45732742 55.53027344 4.06030273 C56.58980225 4.23392334 57.64933105 4.40754395 58.7409668 4.58642578 C116.66922895 14.28569522 182.07003138 37.57243511 219.96777344 85.18530273 C220.721875 86.11342773 221.47597656 87.04155273 222.25292969 87.99780273 C228.46277558 95.77014167 233.81664113 103.97107882 238.94384766 112.48999023 C239.86375104 114.013073 240.80691312 115.52205041 241.75292969 117.02905273 C242.96777344 119.18530273 242.96777344 119.18530273 242.96777344 121.18530273 C243.70739319 120.81327225 244.44701294 120.44124176 245.20904541 120.05793762 C252.32079446 116.48168257 259.4346687 112.90969444 266.55072403 109.34201527 C270.20549589 107.50950005 273.8595411 105.67557134 277.51171875 103.83789062 C295.58134724 94.74728856 313.7252983 85.90516343 332.12084961 77.49014282 C335.86230262 75.77531019 339.59156865 74.03509036 343.31933594 72.29077148 C345.41043754 71.31802014 347.50157994 70.3453565 349.59277344 69.37280273 C350.68976562 68.85911133 351.78675781 68.34541992 352.91699219 67.81616211 C353.95726562 67.3334082 354.99753906 66.8506543 356.06933594 66.35327148 C356.96990723 65.93327881 357.87047852 65.51328613 358.79833984 65.08056641 C360.96777344 64.18530273 360.96777344 64.18530273 362.96777344 64.18530273 C362.97711914 64.77617676 362.98646484 65.36705078 362.99609375 65.97583008 C363.90012107 112.17871674 376.21279143 153.25509702 409.64550781 186.21240234 C424.48080702 200.45501286 442.39339714 211.60999147 460.99609375 220.26293945 C462.9437464 221.17406274 464.87314649 222.1175181 466.80371094 223.06420898 C487.56130496 232.98901245 510.58438935 240.00481174 532.96777344 245.18530273 C533.96373535 245.42055664 534.95969727 245.65581055 535.98583984 245.89819336 C551.89220114 249.63641303 567.81595829 252.73348043 583.96777344 255.18530273 C585.8370752 255.47703369 585.8370752 255.47703369 587.74414062 255.7746582 C605.4358465 258.53156543 623.14226739 260.73950018 640.96777344 262.43530273 C641.8313446 262.51820557 642.69491577 262.6011084 643.58465576 262.68652344 C653.55712777 263.63412851 663.51776756 264.40228796 673.52709961 264.83111572 C677.04829307 264.98960255 680.51827982 265.22215706 684.01391602 265.68237305 C688.00205467 266.1896633 691.96735422 266.48611496 695.97949219 266.68530273 C696.77988922 266.72554565 697.58028625 266.76578857 698.40493774 266.80725098 C701.15477728 266.9401578 703.90489517 267.06406561 706.65527344 267.18530273 C707.63354095 267.22921143 708.61180847 267.27312012 709.61972046 267.31835938 C725.9444225 268.02480528 742.2629546 268.3058275 758.60058594 268.46655273 C759.60424257 268.47652283 760.60789921 268.48649292 761.64196968 268.49676514 C771.85841044 268.59633896 782.07483965 268.68044277 792.29160309 268.73830986 C810.96327447 268.84754028 829.60416664 269.02270542 848.24902344 270.09936523 C848.93607676 270.13835434 849.62313007 270.17734344 850.33100319 270.21751404 C955.07773152 276.3255466 955.07773152 276.3255466 986.78027344 310.06030273 C993.70613261 318.32876345 996.42739268 326.89364427 996.29589844 337.54467773 C995.48813221 346.50703636 990.75465278 352.30529724 984.02246094 357.95874023 C968.10267661 369.5626751 949.9728307 375.74885628 930.96777344 380.18530273 C929.16566406 380.61649414 929.16566406 380.61649414 927.32714844 381.05639648 C912.80328782 384.14351664 897.75512699 385.08641984 882.96777344 386.18530273 C882.30544708 386.23516327 881.64312073 386.2850238 880.96072388 386.33639526 C863.85159346 387.56548983 846.6747479 387.47479385 829.53027344 387.49780273 C828.73402683 387.49910061 827.93778023 387.50039848 827.11740494 387.50173569 C800.53789914 387.53449677 774.35552505 386.61156865 747.96777344 383.18530273 C746.38933678 382.98532349 744.81088626 382.78545364 743.23242188 382.58569336 C733.11607708 381.28989839 723.03928535 379.78985728 712.96777344 378.18530273 C711.73671875 377.99355469 710.50566406 377.80180664 709.23730469 377.60424805 C682.56933801 373.41665652 656.32165192 367.25561929 630.09277344 360.93530273 C629.42443481 360.7747641 628.75609619 360.61422546 628.06750488 360.44882202 C571.03179641 346.70518181 515.91618068 325.32145054 464.30981445 297.47216797 C463.52533936 297.05136963 462.74086426 296.63057129 461.93261719 296.19702148 C461.25835693 295.8305249 460.58409668 295.46402832 459.8894043 295.08642578 C457.93145702 294.16827264 456.0781577 293.63607869 453.96777344 293.18530273 C453.66186279 294.01328369 453.35595215 294.84126465 453.04077148 295.69433594 C446.30414596 313.88987242 439.35244572 331.95769784 431.90063477 349.87402344 C431.19549137 351.62110341 430.56355155 353.39796839 429.96777344 355.18530273 C421.26906379 352.58345655 413.18300069 348.74602469 404.96777344 344.93530273 C402.6158239 343.85019775 400.26317841 342.7666116 397.91049194 341.68310547 C396.30218517 340.94228339 394.69413426 340.20090559 393.08633423 339.45898438 C387.89895203 337.0669398 382.70058742 334.7009074 377.49121094 332.35717773 C360.04478873 324.50202202 342.77754819 316.33474012 325.59101868 307.92655945 C319.75721364 305.07512003 313.89606476 302.28278023 308.03027344 299.49780273 C289.57628134 290.69834092 271.33803057 281.55345618 253.45214844 271.64624023 C249.99695699 269.73452107 246.51785942 267.91393938 242.96777344 266.18530273 C242.80849365 266.78536133 242.64921387 267.38541992 242.48510742 268.00366211 C240.63304177 274.60296185 238.12165493 280.5767725 235.03027344 286.68530273 C234.55154785 287.6351001 234.07282227 288.58489746 233.57958984 289.56347656 C226.58930238 303.12599379 218.07404776 315.74391859 207.96777344 327.18530273 C207.5143457 327.70431152 207.06091797 328.22332031 206.59375 328.75805664 C199.93539667 336.34377581 193.0516109 343.08947421 184.96777344 349.18530273 C183.95714844 349.97291992 182.94652344 350.76053711 181.90527344 351.57202148 C165.9827096 363.69289665 147.77434305 371.67163908 128.96777344 378.18530273 C128.26346191 378.43505859 127.55915039 378.68481445 126.83349609 378.94213867 C115.45360547 382.94355352 103.84455981 385.19068265 91.96777344 387.18530273 C90.94296875 387.3594873 89.91816406 387.53367187 88.86230469 387.71313477 C85.6079348 388.25965882 82.35117787 388.7884012 79.09277344 389.31030273 C78.12742676 389.46893799 77.16208008 389.62757324 76.16748047 389.79101562 C57.68557675 392.64905746 39.08555558 393.59731045 20.40527344 393.56030273 C19.40317841 393.56009125 18.40108337 393.55987976 17.36862183 393.55966187 C-10.67361546 393.5013091 -38.80990024 391.23689991 -66.03222656 384.18530273 C-67.33232666 383.84909912 -67.33232666 383.84909912 -68.65869141 383.50610352 C-81.25339563 380.15963888 -93.1847887 375.58656993 -105.03222656 370.18530273 C-105.72799805 369.87367188 -106.42376953 369.56204102 -107.140625 369.2409668 C-147.26102334 351.09172006 -178.41199791 314.83618475 -194.22753906 274.14624023 C-209.34337427 233.34165589 -211.90663063 190.80054532 -204.03222656 148.18530273 C-203.87737793 147.34 -203.7225293 146.49469727 -203.56298828 145.6237793 C-197.64176039 114.66028197 -182.75880336 85.81360029 -162.03222656 62.18530273 C-161.28199219 61.32549805 -160.53175781 60.46569336 -159.75878906 59.57983398 C-157.54699004 57.08495488 -155.30231025 54.62717654 -153.03222656 52.18530273 C-152.40960938 51.50854492 -151.78699219 50.83178711 -151.14550781 50.13452148 C-112.94897722 10.17630605 -52.67696044 -0.00474225 0 0 Z " fill="#FEFEFE" transform="translate(600.0322265625,806.814697265625)"/>
</svg>
